<svg width="100%" height="100%" viewBox="0 0 600 600" version="1.1" xmlns="http://www.w3.org/2000/svg" xmlns:xlink="http://www.w3.org/1999/xlink" xml:space="preserve" xmlns:serif="http://www.serif.com/" style="fill-rule:evenodd;clip-rule:evenodd;stroke-linecap:round;stroke-linejoin:round;stroke-miterlimit:1.5;">
    <g transform="matrix(1,0,0,1,14.678,2.16884)">
        <g transform="matrix(1,0,0,1,14.6132,11.803)">
            <g transform="matrix(0.934308,0.0576172,-0.0615515,0.998104,37.304,-42.5457)">
                <path d="M442.883,330.338C409.835,399.133 328.225,397.11 328.225,397.11" style="fill:rgb(152,195,121);stroke:rgb(152,195,121);stroke-width:37.86px;"/>
            </g>
            <g transform="matrix(1.39826,0,0,1.04704,-105.144,-34.841)">
                <path d="M369.29,329.293C369.943,327.619 370.569,325.868 371.175,324.028C376.311,308.42 380.044,292.41 380.044,274.502C380.044,259.579 377.926,245.527 373.689,232.345C369.452,219.163 363.329,207.722 355.321,198.022C347.312,188.322 337.418,180.736 325.638,175.264C313.858,169.793 300.518,167.057 285.619,167.057C270.44,167.057 256.519,169.699 243.854,174.985C231.189,180.27 220.061,187.856 210.47,197.742C200.878,207.629 192.87,219.847 186.444,234.397C180.764,247.081 176.434,261.134 173.454,276.554C170.474,291.975 168.984,307.706 168.984,323.748C168.984,345.138 172.174,364.693 178.552,382.414C184.931,400.135 194.197,414.996 206.349,426.997C218.502,438.997 233.192,447.516 250.419,452.553C267.647,457.589 287.109,458.615 308.806,455.63C326.034,452.894 347.784,443.057 359.88,436.989C372.318,430.75 376.506,431.757 381.105,438.312C386.253,445.65 383.095,457.778 372.666,465.88C362.532,473.752 344.379,482.119 331.435,485.849C318.491,489.58 304.383,491.446 289.111,491.446C266.203,491.446 245.577,487.435 227.232,479.414C208.887,471.393 193.452,459.827 180.927,444.718C168.402,429.608 158.927,411.576 152.502,390.622C146.076,369.668 142.864,346.506 142.864,321.137C142.864,294.648 146.169,269.901 152.781,246.895C159.393,223.889 168.914,203.898 181.346,186.923C193.778,169.948 208.957,156.673 226.883,147.097C244.808,137.522 264.574,132.734 286.178,132.734C303.871,132.734 320.097,136.185 334.857,143.087C349.617,149.989 362.258,159.906 372.781,172.839C383.304,185.773 391.335,201.1 396.876,218.821C402.417,236.542 405.187,256.097 405.187,277.487C405.187,294.151 403.385,314.59 398.324,330.253C396.743,335.148 394.816,340.287 392.643,345.404L369.29,329.293Z" style="fill:rgb(152,195,121);fill-rule:nonzero;"/>
            </g>
        </g>
        <g>
            <g transform="matrix(0.934308,0.0576172,-0.0615515,0.998104,37.304,-42.5457)">
                <path d="M442.883,330.338C409.835,399.133 328.225,397.11 328.225,397.11" style="fill:none;stroke:rgb(22,30,41);stroke-width:37.86px;"/>
            </g>
            <g transform="matrix(1.39826,0,0,1.04704,-105.144,-34.841)">
                <path d="M369.29,329.293C369.943,327.619 370.569,325.868 371.175,324.028C376.311,308.42 380.044,292.41 380.044,274.502C380.044,259.579 377.926,245.527 373.689,232.345C369.452,219.163 363.329,207.722 355.321,198.022C347.312,188.322 337.418,180.736 325.638,175.264C313.858,169.793 300.518,167.057 285.619,167.057C270.44,167.057 256.519,169.699 243.854,174.985C231.189,180.27 220.061,187.856 210.47,197.742C200.878,207.629 192.87,219.847 186.444,234.397C180.764,247.081 176.434,261.134 173.454,276.554C170.474,291.975 168.984,307.706 168.984,323.748C168.984,345.138 172.174,364.693 178.552,382.414C184.931,400.135 194.197,414.996 206.349,426.997C218.502,438.997 233.192,447.516 250.419,452.553C267.647,457.589 287.109,458.615 308.806,455.63C326.034,452.894 347.784,443.057 359.88,436.989C372.318,430.75 376.506,431.757 381.105,438.312C386.253,445.65 383.095,457.778 372.666,465.88C362.532,473.752 344.379,482.119 331.435,485.849C318.491,489.58 304.383,491.446 289.111,491.446C266.203,491.446 245.577,487.435 227.232,479.414C208.887,471.393 193.452,459.827 180.927,444.718C168.402,429.608 158.927,411.576 152.502,390.622C146.076,369.668 142.864,346.506 142.864,321.137C142.864,294.648 146.169,269.901 152.781,246.895C159.393,223.889 168.914,203.898 181.346,186.923C193.778,169.948 208.957,156.673 226.883,147.097C244.808,137.522 264.574,132.734 286.178,132.734C303.871,132.734 320.097,136.185 334.857,143.087C349.617,149.989 362.258,159.906 372.781,172.839C383.304,185.773 391.335,201.1 396.876,218.821C402.417,236.542 405.187,256.097 405.187,277.487C405.187,294.151 403.385,314.59 398.324,330.253C396.743,335.148 394.816,340.287 392.643,345.404L369.29,329.293Z" style="fill:rgb(22,30,41);fill-rule:nonzero;"/>
            </g>
        </g>
        <g transform="matrix(1,0,0,1,10.1169,5.81024)">
            <g transform="matrix(0.824354,-0.0390061,0.0628411,1.32808,43.9956,-96.776)">
                <path d="M384.059,230.421C384.059,237.27 375.101,242.831 364.066,242.831L192.002,242.831C180.968,242.831 172.009,237.27 172.009,230.421C172.009,223.572 180.968,218.011 192.002,218.011L364.066,218.011C375.101,218.011 384.059,223.572 384.059,230.421Z" style="fill:rgb(22,30,41);"/>
            </g>
            <g transform="matrix(0.824354,-0.0390061,0.0628411,1.32808,27.7352,-40.4854)">
                <path d="M384.059,230.421C384.059,237.27 375.101,242.831 364.066,242.831L192.002,242.831C180.968,242.831 172.009,237.27 172.009,230.421C172.009,223.572 180.968,218.011 192.002,218.011L364.066,218.011C375.101,218.011 384.059,223.572 384.059,230.421Z" style="fill:rgb(22,30,41);"/>
            </g>
            <g transform="matrix(0.824354,-0.0390061,0.0628411,1.32808,10.6849,15.7663)">
                <path d="M384.059,230.421C384.059,237.27 375.101,242.831 364.066,242.831L192.002,242.831C180.968,242.831 172.009,237.27 172.009,230.421C172.009,223.572 180.968,218.011 192.002,218.011L364.066,218.011C375.101,218.011 384.059,223.572 384.059,230.421Z" style="fill:rgb(22,30,41);"/>
            </g>
        </g>
    </g>
</svg>